<svg id="Layer_1" data-name="Layer 1" xmlns="http://www.w3.org/2000/svg" viewBox="0 0 512 512"><defs><style>.cls-1{opacity:0.07;}.cls-2{fill:#f7931e;}</style></defs><title>ico_inbox</title><rect class="cls-1" x="74.98" y="74.98" width="362.04" height="362.04" transform="translate(256 -106.04) rotate(45)"/><rect x="146.05" y="153.09" width="220.83" height="25.49"/><rect x="146.05" y="208.31" width="220.83" height="25.49"/><rect x="146.05" y="263.53" width="220.83" height="25.49"/><path class="cls-2" d="M390.17,83.5H121.64c-21.27,0-37.95,17.06-37.95,38.33L83.5,390.17a38.16,38.16,0,0,0,38.14,38.33H390.17a38.44,38.44,0,0,0,38.33-38.33V121.83A38.32,38.32,0,0,0,390.17,83.5Zm0,230H313.5a57.5,57.5,0,0,1-115,0H121.64V121.83H390.17Z"/></svg>