<svg id="Layer_1" data-name="Layer 1" xmlns="http://www.w3.org/2000/svg" viewBox="0 0 1000 352.58"><defs><style>.cls-1{fill:#4d4d4f;}.cls-2{fill:#d5652e;}</style></defs><title>ilss_logo_w500</title><rect class="cls-1" x="0.44" y="135.84" width="28.8" height="122.75"/><polygon class="cls-1" points="215.33 220.84 125.47 135.84 97.9 135.84 97.9 258.59 125.47 258.59 125.47 173.59 215.33 258.59 242.9 258.59 242.9 135.84 215.33 135.84 215.33 220.84"/><path class="cls-1" d="M435.67,153.26a77.47,77.47,0,0,0-25.09-12.81,109.59,109.59,0,0,0-32.82-4.61H310.52V258.59h67.24a109.92,109.92,0,0,0,32.82-4.6,77.66,77.66,0,0,0,25.09-12.81,57.86,57.86,0,0,0,16.05-19.45,55.9,55.9,0,0,0,0-49A57.76,57.76,0,0,0,435.67,153.26Zm-10.8,61.17a36.54,36.54,0,0,1-10.39,12.87,47.48,47.48,0,0,1-15.94,8.06,69.93,69.93,0,0,1-20.16,2.77H339.33V156.3h39.05a69.93,69.93,0,0,1,20.16,2.78,47.47,47.47,0,0,1,15.94,8A36.72,36.72,0,0,1,424.87,180a41.9,41.9,0,0,1,0,34.43Z"/><rect class="cls-1" x="518.21" y="135.84" width="28.8" height="122.75"/><polygon class="cls-1" points="735.94 135.84 697.98 135.84 631.53 194.82 631.53 135.84 602.73 135.84 602.73 258.59 631.53 258.59 631.53 198.32 699.21 258.59 739.44 258.59 666.62 196.48 735.94 135.84"/><path class="cls-1" d="M858,135.84h-32.6l-62,122.75h33.2l11.53-25.81h67.14l11.52,25.81H920Zm-40.8,76.49,24.5-55.84,24.51,55.84Z"/><polygon class="cls-1" points="11.79 296.88 0 296.88 0 351.5 41.11 351.5 41.11 342.23 11.79 342.23 11.79 296.88"/><path class="cls-1" d="M136.57,295.48A33.76,33.76,0,0,0,124,297.66a22.76,22.76,0,0,0-7.55,5,25.7,25.7,0,0,0-5.45,7.55,33.25,33.25,0,0,0-2.66,14.12q0,13.15,7.69,20.65t20.71,7.5q12.87,0,20.56-7.54T165,324q0-13.46-7.75-21T136.57,295.48Zm11.69,42.67a16.39,16.39,0,0,1-23.2,0q-4.59-4.83-4.58-14.18,0-9.51,4.46-14.22A15.4,15.4,0,0,1,136.69,305q7.29,0,11.7,4.66t4.4,14.13Q152.79,333.35,148.26,338.15Z"/><path class="cls-1" d="M262.55,331.25h13.5v7a25.42,25.42,0,0,1-6.39,3.33,21.47,21.47,0,0,1-7.43,1.37,15.9,15.9,0,0,1-12.11-4.9q-4.62-4.91-4.62-14.71,0-9.1,4.56-13.71T262.35,305a14.62,14.62,0,0,1,8.51,2.35,11.67,11.67,0,0,1,4.64,6.41l11.71-2.07a19.32,19.32,0,0,0-7.87-11.89q-6.1-4.31-17-4.31a31.72,31.72,0,0,0-14,2.75,25.11,25.11,0,0,0-11.2,10.26,30.26,30.26,0,0,0-3.82,15.29,31.84,31.84,0,0,0,3.43,14.67A23.62,23.62,0,0,0,247,348.82a33.62,33.62,0,0,0,16,3.63,41.24,41.24,0,0,0,14.24-2.58,32.24,32.24,0,0,0,10.74-6V322H262.55Z"/><rect class="cls-1" x="359.68" y="296.43" width="11.79" height="55.08"/><path class="cls-1" d="M479.63,321.09a59.79,59.79,0,0,0-12.74-4c-5.73-1.28-9.35-2.51-10.83-3.68a4.15,4.15,0,0,1-1.75-3.35,3.94,3.94,0,0,1,1.87-3.42q2.91-2,8.05-2c3.31,0,5.81.62,7.46,1.86s2.75,3.28,3.26,6.11l11.79-.49A15.69,15.69,0,0,0,480.9,300c-3.71-3-9.22-4.55-16.56-4.55a30.48,30.48,0,0,0-11.49,1.93,15.62,15.62,0,0,0-7.29,5.57,13.64,13.64,0,0,0-2.53,7.87,14,14,0,0,0,5.38,11.09q3.82,3.22,13.3,5.45c4.92,1.15,8.06,1.95,9.45,2.4a9.68,9.68,0,0,1,4.24,2.39,4.82,4.82,0,0,1,1.21,3.32,6.66,6.66,0,0,1-2.88,5.32q-2.89,2.26-8.59,2.27c-3.59,0-6.43-.85-8.54-2.56s-3.52-4.36-4.21-8l-11.47,1.06q1.15,9.23,7.09,14.07t17,4.82a34.89,34.89,0,0,0,12.71-2,16.56,16.56,0,0,0,7.89-6.14,16.49,16.49,0,0,0,.46-17.64A16,16,0,0,0,479.63,321.09Z"/><polygon class="cls-1" points="555.34 305.74 572.67 305.74 572.67 351.5 584.47 351.5 584.47 305.74 601.76 305.74 601.76 296.43 555.34 296.43 555.34 305.74"/><rect class="cls-1" x="670.2" y="296.43" width="11.79" height="55.08"/><path class="cls-1" d="M786.93,340.12a12.21,12.21,0,0,1-8.09,2.82,13.28,13.28,0,0,1-10.35-4.43q-4-4.44-4-14.88,0-9.84,4-14.24a13.66,13.66,0,0,1,10.53-4.4,12.94,12.94,0,0,1,8,2.48,11.68,11.68,0,0,1,4.32,6.76l11.67-2.63a21.48,21.48,0,0,0-6-10.14q-6.69-6-17.41-6-12.27,0-19.79,7.62t-7.53,21.36q0,13,7.48,20.49t19.13,7.5q9.4,0,15.51-4.38t8.75-13.4l-11.44-3.42Q790.32,337.31,786.93,340.12Z"/><path class="cls-1" d="M916.71,326.69a16,16,0,0,0-6.45-5.6,59.47,59.47,0,0,0-12.73-4c-5.73-1.28-9.35-2.51-10.83-3.68a4.16,4.16,0,0,1-1.76-3.35,3.94,3.94,0,0,1,1.87-3.42c1.94-1.33,4.63-2,8.05-2s5.81.62,7.47,1.86,2.75,3.28,3.25,6.11l11.79-.49A15.68,15.68,0,0,0,911.54,300c-3.71-3-9.23-4.55-16.56-4.55a30.48,30.48,0,0,0-11.49,1.93A15.57,15.57,0,0,0,876.2,303a13.57,13.57,0,0,0-2.53,7.87A14,14,0,0,0,879,321.94q3.83,3.22,13.31,5.45,7.36,1.73,9.45,2.4a9.81,9.81,0,0,1,4.24,2.39,4.87,4.87,0,0,1,1.21,3.32,6.64,6.64,0,0,1-2.89,5.32q-2.88,2.26-8.58,2.27-5.38,0-8.55-2.56t-4.2-8l-11.47,1.06q1.16,9.23,7.09,14.07t17,4.82a34.89,34.89,0,0,0,12.71-2,16.56,16.56,0,0,0,7.89-6.14,16.52,16.52,0,0,0,.45-17.64Z"/><polygon class="cls-1" points="767 77.37 909.39 77.37 987.06 -0.29 767 77.37"/><polygon class="cls-2" points="1000 12.65 922.33 90.31 1000 232.7 1000 12.65"/></svg>