<svg id="Layer_1" data-name="Layer 1" xmlns="http://www.w3.org/2000/svg" viewBox="0 0 500 176.29"><defs><style>.cls-1{fill:#4d4d4f;}.cls-2{fill:#d5652e;}</style></defs><title>ilss_logo_w500_1</title><rect class="cls-1" x="0.07" y="67.65" width="14.4" height="61.38"/><polygon class="cls-1" points="107.52 110.15 62.59 67.65 48.8 67.65 48.8 129.03 62.59 129.03 62.59 86.53 107.52 129.03 121.3 129.03 121.3 67.65 107.52 67.65 107.52 110.15"/><path class="cls-1" d="M217.69,76.36A38.65,38.65,0,0,0,205.14,70a54.59,54.59,0,0,0-16.41-2.31H155.11V129h33.62a54.59,54.59,0,0,0,16.41-2.31,38.65,38.65,0,0,0,12.55-6.4,28.9,28.9,0,0,0,8-9.72,28,28,0,0,0,0-24.52A28.8,28.8,0,0,0,217.69,76.36ZM212.29,107a18.5,18.5,0,0,1-5.19,6.43,23.89,23.89,0,0,1-8,4A34.74,34.74,0,0,1,189,118.8H169.52V77.88H189a35.09,35.09,0,0,1,10.08,1.39,23.89,23.89,0,0,1,8,4,18.5,18.5,0,0,1,5.19,6.43,21,21,0,0,1,0,17.22Z"/><rect class="cls-1" x="258.96" y="67.65" width="14.4" height="61.38"/><polygon class="cls-1" points="367.82 67.65 348.84 67.65 315.62 97.14 315.62 67.65 301.22 67.65 301.22 129.03 315.62 129.03 315.62 98.89 349.46 129.03 369.57 129.03 333.16 97.97 367.82 67.65"/><path class="cls-1" d="M428.86,67.65h-16.3l-31,61.38h16.6l5.76-12.91h33.57L443.25,129h16.61Zm-20.4,38.24L420.71,78,433,105.89Z"/><polygon class="cls-1" points="5.75 148.17 -0.15 148.17 -0.15 175.48 20.41 175.48 20.41 170.84 5.75 170.84 5.75 148.17"/><path class="cls-1" d="M68.14,147.47a17,17,0,0,0-6.29,1.09A11.51,11.51,0,0,0,58.07,151a13,13,0,0,0-2.72,3.78A16.63,16.63,0,0,0,54,161.88q0,6.59,3.84,10.32T68.22,176q6.44,0,10.28-3.76t3.84-10.44q0-6.72-3.87-10.5T68.14,147.47ZM74,168.81a7.6,7.6,0,0,1-5.78,2.39,7.72,7.72,0,0,1-5.82-2.41q-2.3-2.41-2.29-7.1c0-3.16.75-5.53,2.23-7.1a8.51,8.51,0,0,1,11.73,0c1.46,1.55,2.2,3.9,2.2,7.06S75.49,167.21,74,168.81Z"/><path class="cls-1" d="M131.13,165.36h6.75v3.49a12.65,12.65,0,0,1-3.2,1.66,10.62,10.62,0,0,1-3.71.69,8,8,0,0,1-6.06-2.45c-1.54-1.63-2.31-4.09-2.31-7.35,0-3,.76-5.32,2.28-6.86a8.25,8.25,0,0,1,6.15-2.31,7.32,7.32,0,0,1,4.25,1.17,5.8,5.8,0,0,1,2.32,3.2l5.86-1a9.66,9.66,0,0,0-3.94-5.94c-2-1.44-4.87-2.16-8.49-2.16a15.77,15.77,0,0,0-7,1.38,12.48,12.48,0,0,0-5.6,5.13,15,15,0,0,0-1.91,7.64,16,16,0,0,0,1.71,7.34,11.86,11.86,0,0,0,5.12,5.18,16.74,16.74,0,0,0,8,1.81,20.75,20.75,0,0,0,7.12-1.28,16.31,16.31,0,0,0,5.37-3v-11H131.13Z"/><rect class="cls-1" x="179.69" y="147.94" width="5.9" height="27.54"/><path class="cls-1" d="M239.67,160.28a29.51,29.51,0,0,0-6.37-2c-2.87-.63-4.67-1.25-5.42-1.84a2.07,2.07,0,0,1-.87-1.67,2,2,0,0,1,.93-1.71,7.08,7.08,0,0,1,4-1,6.21,6.21,0,0,1,3.73.93,4.66,4.66,0,0,1,1.63,3.05l5.89-.24a7.8,7.8,0,0,0-2.92-6.07q-2.78-2.28-8.28-2.28a15.32,15.32,0,0,0-5.74,1,7.84,7.84,0,0,0-3.65,2.79,6.81,6.81,0,0,0-1.26,3.94,7,7,0,0,0,2.69,5.54q1.91,1.62,6.65,2.72c2.46.58,4,1,4.72,1.2a4.86,4.86,0,0,1,2.12,1.2,2.38,2.38,0,0,1,.61,1.66,3.34,3.34,0,0,1-1.44,2.66,6.87,6.87,0,0,1-4.3,1.13,6.62,6.62,0,0,1-4.27-1.27,6.44,6.44,0,0,1-2.1-4l-5.74.52a10.32,10.32,0,0,0,3.55,7q3,2.41,8.5,2.41a17.46,17.46,0,0,0,6.36-1,8.3,8.3,0,0,0,3.94-3.07,8.22,8.22,0,0,0,.23-8.82A7.94,7.94,0,0,0,239.67,160.28Z"/><polygon class="cls-1" points="277.52 152.6 286.19 152.6 286.19 175.48 292.09 175.48 292.09 152.6 300.73 152.6 300.73 147.94 277.52 147.94 277.52 152.6"/><rect class="cls-1" x="334.95" y="147.94" width="5.9" height="27.54"/><path class="cls-1" d="M393.32,169.79a6.13,6.13,0,0,1-4.05,1.41A6.61,6.61,0,0,1,384.1,169q-2-2.21-2-7.43,0-4.94,2-7.12a6.8,6.8,0,0,1,5.26-2.2,6.42,6.42,0,0,1,4,1.24,5.81,5.81,0,0,1,2.16,3.38l5.84-1.32a10.78,10.78,0,0,0-3-5.07,12.59,12.59,0,0,0-8.71-3,13.28,13.28,0,0,0-9.89,3.81c-2.52,2.54-3.77,6.09-3.77,10.68q0,6.49,3.74,10.24a14.41,14.41,0,0,0,17.32,1.57,12.07,12.07,0,0,0,4.38-6.7l-5.72-1.71A8,8,0,0,1,393.32,169.79Z"/><path class="cls-1" d="M458.21,163.08a8,8,0,0,0-3.23-2.8,29.21,29.21,0,0,0-6.36-2c-2.87-.63-4.68-1.25-5.42-1.84a2.08,2.08,0,0,1-.88-1.67,2,2,0,0,1,.94-1.71,7.07,7.07,0,0,1,4-1A6.23,6.23,0,0,1,451,153a4.61,4.61,0,0,1,1.62,3.05l5.9-.24a7.83,7.83,0,0,0-2.92-6.07q-2.78-2.28-8.28-2.28a15.32,15.32,0,0,0-5.74,1,7.84,7.84,0,0,0-3.65,2.79,6.81,6.81,0,0,0-1.26,3.94,7,7,0,0,0,2.68,5.54q1.92,1.62,6.66,2.72c2.45.58,4,1,4.72,1.2a4.86,4.86,0,0,1,2.12,1.2,2.43,2.43,0,0,1,.61,1.66,3.32,3.32,0,0,1-1.45,2.66,6.82,6.82,0,0,1-4.29,1.13,6.62,6.62,0,0,1-4.27-1.27,6.44,6.44,0,0,1-2.1-4l-5.74.52a10.32,10.32,0,0,0,3.55,7c2,1.61,4.81,2.41,8.5,2.41a17.46,17.46,0,0,0,6.36-1A8.3,8.3,0,0,0,458,171.9a8.27,8.27,0,0,0,.23-8.82Z"/><polygon class="cls-1" points="383.35 38.42 454.55 38.42 493.38 -0.42 383.35 38.42"/><polygon class="cls-2" points="499.85 6.06 461.02 44.89 499.85 116.08 499.85 6.06"/></svg>