<svg id="Layer_1" data-name="Layer 1" xmlns="http://www.w3.org/2000/svg" viewBox="0 0 250 88.14"><defs><style>.cls-1{fill:#4d4d4f;}.cls-2{fill:#d5652e;}</style></defs><title>ilss_logo_w250</title><rect class="cls-1" x="0.35" y="33.84" width="7.2" height="30.69"/><polygon class="cls-1" points="54.08 55.09 31.61 33.84 24.72 33.84 24.72 64.53 31.61 64.53 31.61 43.28 54.08 64.53 60.97 64.53 60.97 33.84 54.08 33.84 54.08 55.09"/><path class="cls-1" d="M109.16,38.19a19.5,19.5,0,0,0-6.27-3.2,27.31,27.31,0,0,0-8.2-1.15H77.88V64.52H94.69a27.31,27.31,0,0,0,8.2-1.15,19.11,19.11,0,0,0,6.27-3.2,14.44,14.44,0,0,0,4-4.86,13.94,13.94,0,0,0,0-12.26A14.44,14.44,0,0,0,109.16,38.19Zm-2.7,15.3a9.15,9.15,0,0,1-2.59,3.21,12.09,12.09,0,0,1-4,2,17.55,17.55,0,0,1-5,.69H85.08V39h9.76a17.2,17.2,0,0,1,5,.7,11.89,11.89,0,0,1,4,2,9.1,9.1,0,0,1,2.59,3.22,10.43,10.43,0,0,1,0,8.61Z"/><rect class="cls-1" x="129.8" y="33.84" width="7.2" height="30.69"/><polygon class="cls-1" points="184.23 33.84 174.74 33.84 158.13 48.58 158.13 33.84 150.93 33.84 150.93 64.53 158.13 64.53 158.13 49.46 175.05 64.53 185.11 64.53 166.9 49 184.23 33.84"/><path class="cls-1" d="M214.75,33.84H206.6L191.1,64.52h8.3l2.88-6.45h16.79l2.87,6.45h8.31ZM204.55,53l6.12-14,6.13,14Z"/><polygon class="cls-1" points="3.19 74.1 0.25 74.1 0.25 87.75 10.52 87.75 10.52 85.43 3.19 85.43 3.19 74.1"/><path class="cls-1" d="M34.39,73.75a8.52,8.52,0,0,0-3.15.54,6,6,0,0,0-1.89,1.24A6.78,6.78,0,0,0,28,77.42,8.39,8.39,0,0,0,27.33,81a6.86,6.86,0,0,0,1.92,5.16A7.1,7.1,0,0,0,34.43,88a7.13,7.13,0,1,0,0-14.24Zm2.92,10.66a3.79,3.79,0,0,1-2.89,1.2,3.84,3.84,0,0,1-2.91-1.2,6.13,6.13,0,0,1,0-7.11,3.86,3.86,0,0,1,2.94-1.17,3.81,3.81,0,0,1,2.92,1.16,5,5,0,0,1,1.1,3.53A5,5,0,0,1,37.31,84.41Z"/><path class="cls-1" d="M65.88,82.69h3.38v1.75a6.86,6.86,0,0,1-1.6.83,5.31,5.31,0,0,1-1.86.34,4,4,0,0,1-3-1.22,5.21,5.21,0,0,1-1.16-3.68,4.69,4.69,0,0,1,1.14-3.43,4.13,4.13,0,0,1,3.07-1.15,3.68,3.68,0,0,1,2.13.58,2.94,2.94,0,0,1,1.16,1.6l2.93-.51a4.83,4.83,0,0,0-2-3,7.34,7.34,0,0,0-4.25-1.07,7.86,7.86,0,0,0-3.49.69A6.28,6.28,0,0,0,59.54,77a7.53,7.53,0,0,0-1,3.82,8,8,0,0,0,.86,3.67A5.88,5.88,0,0,0,62,87.08,8.3,8.3,0,0,0,66,88a10.45,10.45,0,0,0,3.56-.64,8.28,8.28,0,0,0,2.69-1.49V80.37H65.88Z"/><rect class="cls-1" x="90.17" y="73.98" width="2.95" height="13.77"/><path class="cls-1" d="M120.15,80.15a15.13,15.13,0,0,0-3.18-1,8.19,8.19,0,0,1-2.71-.92,1,1,0,0,1-.44-.84,1,1,0,0,1,.47-.85,3.53,3.53,0,0,1,2-.5,3.18,3.18,0,0,1,1.87.46A2.34,2.34,0,0,1,119,78l3-.12a3.89,3.89,0,0,0-1.46-3,6.43,6.43,0,0,0-4.14-1.14,7.66,7.66,0,0,0-2.87.48,3.87,3.87,0,0,0-1.82,1.39,3.36,3.36,0,0,0-.64,2,3.5,3.5,0,0,0,1.35,2.77,8.15,8.15,0,0,0,3.32,1.36q1.85.44,2.37.6a2.53,2.53,0,0,1,1.06.6,1.23,1.23,0,0,1,.3.83,1.66,1.66,0,0,1-.72,1.33,3.43,3.43,0,0,1-2.15.57A2.9,2.9,0,0,1,113.34,83l-2.86.26a5.12,5.12,0,0,0,1.77,3.52A6.54,6.54,0,0,0,116.5,88a8.84,8.84,0,0,0,3.18-.5,4.13,4.13,0,0,0,2-1.54,4.12,4.12,0,0,0,.12-4.41A4,4,0,0,0,120.15,80.15Z"/><polygon class="cls-1" points="139.08 76.31 143.41 76.31 143.41 87.75 146.36 87.75 146.36 76.31 150.69 76.31 150.69 73.98 139.08 73.98 139.08 76.31"/><rect class="cls-1" x="167.79" y="73.98" width="2.95" height="13.77"/><path class="cls-1" d="M197,84.91a3.07,3.07,0,0,1-2,.7,3.3,3.3,0,0,1-2.59-1.11,5.47,5.47,0,0,1-1-3.71,5.21,5.21,0,0,1,1-3.57A3.43,3.43,0,0,1,195,76.13a3.15,3.15,0,0,1,2,.62,2.9,2.9,0,0,1,1.09,1.69l2.91-.66a5.4,5.4,0,0,0-1.49-2.54,6.33,6.33,0,0,0-4.35-1.49,6.63,6.63,0,0,0-4.95,1.9A7.25,7.25,0,0,0,188.33,81a6.9,6.9,0,0,0,1.88,5.12,7.17,7.17,0,0,0,8.66.78,5.91,5.91,0,0,0,2.18-3.34l-2.86-.86A4,4,0,0,1,197,84.91Z"/><path class="cls-1" d="M229.42,81.55a3.94,3.94,0,0,0-1.61-1.4,15.13,15.13,0,0,0-3.18-1,8.1,8.1,0,0,1-2.71-.92,1,1,0,0,1-.44-.84,1,1,0,0,1,.47-.85,3.53,3.53,0,0,1,2-.5,3.2,3.2,0,0,1,1.87.46,2.39,2.39,0,0,1,.81,1.53l3-.12a3.89,3.89,0,0,0-1.46-3A6.43,6.43,0,0,0,224,73.75a7.66,7.66,0,0,0-2.87.48,3.87,3.87,0,0,0-1.82,1.39,3.36,3.36,0,0,0-.64,2A3.5,3.5,0,0,0,220,80.36a8.15,8.15,0,0,0,3.32,1.36c1.23.29,2,.49,2.36.6a2.51,2.51,0,0,1,1.07.6,1.23,1.23,0,0,1,.3.83,1.66,1.66,0,0,1-.72,1.33,3.45,3.45,0,0,1-2.15.57,3.29,3.29,0,0,1-2.14-.64A3.24,3.24,0,0,1,221,83l-2.87.26a5.17,5.17,0,0,0,1.78,3.52A6.54,6.54,0,0,0,224.16,88a8.84,8.84,0,0,0,3.18-.5,4.13,4.13,0,0,0,2-1.54,3.94,3.94,0,0,0,.7-2.22A3.89,3.89,0,0,0,229.42,81.55Z"/><polygon class="cls-1" points="192 19.22 227.59 19.22 247.01 -0.2 192 19.22"/><polygon class="cls-2" points="250.25 3.04 230.83 22.46 250.25 58.05 250.25 3.04"/></svg>